<svg width="190" height="185" viewBox="0 0 190 185" fill="none" xmlns="http://www.w3.org/2000/svg">
<path d="M27.245 140.085L26.727 140.94L26.7323 140.944L27.245 140.085ZM11.005 121.96L10.1062 122.398L10.1106 122.407L11.005 121.96ZM11.005 64.54L10.1105 64.0928L10.1062 64.1016L11.005 64.54ZM27.245 46.415L26.7323 45.5564L26.727 45.5596L27.245 46.415ZM74.95 46.415L74.432 47.2704L74.4373 47.2735L74.95 46.415ZM91.19 64.54L90.2912 64.9784L90.2956 64.9872L91.19 64.54ZM91.19 121.96L90.2955 121.513L90.2912 121.522L91.19 121.96ZM74.95 140.085L74.4373 139.226L74.432 139.23L74.95 140.085ZM61.175 108.62L60.2126 108.349L60.2093 108.36L60.2063 108.372L61.175 108.62ZM61.175 77.88L60.2063 78.1284L60.2102 78.1433L60.2144 78.1581L61.175 77.88ZM57.115 69.905L57.7794 69.1576L57.7794 69.1576L57.115 69.905ZM45.225 69.905L44.5606 69.1576L44.5606 69.1576L45.225 69.905ZM41.02 77.88L40.0576 77.6085L40.0552 77.617L40.0529 77.6255L41.02 77.88ZM41.02 108.62L40.0513 108.868L40.0543 108.88L40.0576 108.891L41.02 108.62ZM51.17 145.32C42.3403 145.32 34.5462 143.281 27.7577 139.226L26.7323 140.944C33.8638 145.203 42.0197 147.32 51.17 147.32V145.32ZM27.763 139.23C21.0778 135.181 15.7875 129.289 11.8994 121.513L10.1106 122.407C14.1492 130.484 19.6856 136.676 26.727 140.94L27.763 139.23ZM11.9038 121.522C8.11927 113.763 6.205 104.351 6.205 93.25H4.205C4.205 104.575 6.1574 114.303 10.1062 122.398L11.9038 121.522ZM6.205 93.25C6.205 82.1486 8.11927 72.7366 11.9038 64.9784L10.1062 64.1016C6.1574 72.1967 4.205 81.9247 4.205 93.25H6.205ZM11.8994 64.9872C15.7875 57.2111 21.0778 51.3192 27.763 47.2704L26.727 45.5596C19.6856 49.8242 14.1492 56.0155 10.1106 64.0928L11.8994 64.9872ZM27.7577 47.2735C34.5462 43.2193 42.3403 41.18 51.17 41.18V39.18C42.0197 39.18 33.8638 41.2974 26.7323 45.5565L27.7577 47.2735ZM51.17 41.18C59.9999 41.18 67.7431 43.2194 74.432 47.2704L75.468 45.5596C68.4302 41.2973 60.3201 39.18 51.17 39.18V41.18ZM74.4373 47.2735C81.2159 51.3219 86.5019 57.2103 90.2912 64.9784L92.0888 64.1016C88.1448 56.0163 82.6041 49.8214 75.4627 45.5565L74.4373 47.2735ZM90.2956 64.9872C94.1735 72.7431 96.135 82.1518 96.135 93.25H98.135C98.135 81.9215 96.1331 72.1902 92.0844 64.0928L90.2956 64.9872ZM96.135 93.25C96.135 104.348 94.1735 113.757 90.2956 121.513L92.0844 122.407C96.1331 114.31 98.135 104.578 98.135 93.25H96.135ZM90.2912 121.522C86.5019 129.29 81.2159 135.178 74.4373 139.226L75.4627 140.944C82.6041 136.679 88.1448 130.484 92.0888 122.398L90.2912 121.522ZM74.432 139.23C67.7431 143.281 59.9999 145.32 51.17 145.32V147.32C60.3201 147.32 68.4302 145.203 75.468 140.94L74.432 139.23ZM51.17 119.915C53.6506 119.915 55.8657 119.043 57.7794 117.342L56.4506 115.848C54.8843 117.24 53.1361 117.915 51.17 117.915V119.915ZM57.7794 117.342C59.738 115.601 61.1574 112.715 62.1437 108.868L60.2063 108.372C59.2593 112.065 57.972 114.495 56.4506 115.848L57.7794 117.342ZM62.1375 108.891C63.2366 104.994 63.77 99.767 63.77 93.25H61.77C61.77 99.6863 61.2401 104.706 60.2126 108.349L62.1375 108.891ZM63.77 93.25C63.77 86.6397 63.2372 81.4077 62.1356 77.6019L60.2144 78.1581C61.2394 81.699 61.77 86.7136 61.77 93.25H63.77ZM62.1437 77.6316C61.1574 73.7851 59.738 70.8986 57.7794 69.1576L56.4506 70.6524C57.972 72.0047 59.2593 74.4349 60.2063 78.1284L62.1437 77.6316ZM57.7794 69.1576C55.8657 67.4566 53.6506 66.585 51.17 66.585V68.585C53.1361 68.585 54.8843 69.2601 56.4506 70.6524L57.7794 69.1576ZM51.17 66.585C48.6894 66.585 46.4743 67.4566 44.5606 69.1576L45.8894 70.6524C47.4557 69.2601 49.2039 68.585 51.17 68.585V66.585ZM44.5606 69.1576C42.6106 70.891 41.1412 73.7665 40.0576 77.6085L41.9825 78.1515C43.0255 74.4535 44.3594 72.0123 45.8894 70.6524L44.5606 69.1576ZM40.0529 77.6255C39.0541 81.4209 38.57 86.6435 38.57 93.25H40.57C40.57 86.7098 41.0525 81.6858 41.9871 78.1345L40.0529 77.6255ZM38.57 93.25C38.57 99.7629 39.0547 104.981 40.0513 108.868L41.9887 108.372C41.052 104.719 40.57 99.6904 40.57 93.25H38.57ZM40.0576 108.891C41.1412 112.733 42.6106 115.609 44.5606 117.342L45.8894 115.848C44.3594 114.488 43.0255 112.047 41.9825 108.349L40.0576 108.891ZM44.5606 117.342C46.4743 119.043 48.6894 119.915 51.17 119.915V117.915C49.2039 117.915 47.4557 117.24 45.8894 115.848L44.5606 117.342ZM117.959 144L117.748 144.977L117.748 144.977L117.959 144ZM99.1095 137.185L98.2009 136.767L97.8133 137.61L98.6252 138.06L99.1095 137.185ZM110.709 111.955L111.21 111.089L110.259 110.54L109.801 111.537L110.709 111.955ZM124.339 117.61L124.083 118.577L124.095 118.58L124.106 118.582L124.339 117.61ZM147.394 117.465L147.856 118.352L147.862 118.349L147.869 118.345L147.394 117.465ZM148.409 106.445L147.845 107.27L147.86 107.281L147.876 107.29L148.409 106.445ZM125.644 104.56H124.644V105.56H125.644V104.56ZM125.644 83.535L124.932 82.8337L124.644 83.1256V83.535H125.644ZM151.889 56.855L152.856 56.5981L152.406 54.9043L151.177 56.1537L151.889 56.855ZM154.934 68.31V69.31H156.235L155.901 68.0531L154.934 68.31ZM104.329 68.31H103.329V69.31H104.329V68.31ZM104.329 42.5V41.5H103.329V42.5H104.329ZM180.019 42.5H181.019V41.5H180.019V42.5ZM180.019 63.525L180.732 64.2263L181.019 63.9344V63.525H180.019ZM153.774 90.205L153.282 91.0751L153.949 91.4533L154.487 90.9063L153.774 90.205ZM137.389 80.925V79.925H133.595L136.897 81.7951L137.389 80.925ZM180.6 128.195L179.749 127.669L179.742 127.681L180.6 128.195ZM165.519 141.245L165.077 140.348L165.072 140.351L165.519 141.245ZM139.129 145.32C132.244 145.32 125.258 144.555 118.171 143.023L117.748 144.977C124.967 146.538 132.095 147.32 139.129 147.32V145.32ZM118.171 143.023C111.096 141.493 104.908 139.252 99.5938 136.31L98.6252 138.06C104.138 141.112 110.516 143.414 117.748 144.977L118.171 143.023ZM100.018 137.603L111.618 112.373L109.801 111.537L98.2009 136.767L100.018 137.603ZM110.209 112.821C114.634 115.377 119.259 117.297 124.083 118.577L124.596 116.643C119.947 115.41 115.485 113.559 111.21 111.089L110.209 112.821ZM124.106 118.582C129.003 119.758 133.626 120.35 137.969 120.35V118.35C133.807 118.35 129.342 117.782 124.573 116.638L124.106 118.582ZM137.969 120.35C141.934 120.35 145.25 119.707 147.856 118.352L146.933 116.578C144.706 117.736 141.739 118.35 137.969 118.35V120.35ZM147.869 118.345C149.244 117.605 150.328 116.663 151.067 115.499C151.808 114.331 152.164 112.993 152.164 111.52H150.164C150.164 112.657 149.893 113.615 149.377 114.428C148.859 115.246 148.059 115.972 146.92 116.585L147.869 118.345ZM152.164 111.52C152.164 108.963 151.078 106.948 148.943 105.6L147.876 107.29C149.414 108.262 150.164 109.63 150.164 111.52H152.164ZM148.974 105.62C146.875 104.183 143.52 103.56 139.129 103.56V105.56C143.439 105.56 146.271 106.193 147.845 107.27L148.974 105.62ZM139.129 103.56H125.644V105.56H139.129V103.56ZM126.644 104.56V83.535H124.644V104.56H126.644ZM126.357 84.2363L152.602 57.5563L151.177 56.1537L124.932 82.8337L126.357 84.2363ZM150.923 57.1119L153.968 68.5669L155.901 68.0531L152.856 56.5981L150.923 57.1119ZM154.934 67.31H104.329V69.31H154.934V67.31ZM105.329 68.31V42.5H103.329V68.31H105.329ZM104.329 43.5H180.019V41.5H104.329V43.5ZM179.019 42.5V63.525H181.019V42.5H179.019ZM179.307 62.8237L153.062 89.5037L154.487 90.9063L180.732 64.2263L179.307 62.8237ZM154.267 89.3349L137.882 80.0549L136.897 81.7951L153.282 91.0751L154.267 89.3349ZM137.389 81.925H146.379V79.925H137.389V81.925ZM146.379 81.925C159.007 81.925 168.453 84.7487 174.875 90.24L176.174 88.72C169.256 82.8046 159.272 79.925 146.379 79.925V81.925ZM174.875 90.24C181.316 95.7481 184.529 102.814 184.529 111.52H186.529C186.529 102.246 183.073 94.6186 176.174 88.72L174.875 90.24ZM184.529 111.52C184.529 117.12 182.946 122.498 179.749 127.669L181.45 128.721C184.827 123.259 186.529 117.52 186.529 111.52H184.529ZM179.742 127.681C176.672 132.798 171.809 137.03 165.077 140.348L165.962 142.142C172.957 138.694 178.147 134.226 181.457 128.709L179.742 127.681ZM165.072 140.351C158.491 143.641 149.863 145.32 139.129 145.32V147.32C150.049 147.32 159.014 145.616 165.967 142.139L165.072 140.351Z" fill="url(#paint0_linear_559_140)" fill-opacity="0.15"/>
<defs>
<linearGradient id="paint0_linear_559_140" x1="79.048" y1="102.488" x2="228.563" y2="102.488" gradientUnits="userSpaceOnUse">
<stop stop-color="#29B6FB"/>
<stop offset="1" stop-color="#D225E1"/>
</linearGradient>
</defs>
</svg>
