<svg width="190" height="185" viewBox="0 0 190 185" fill="none" xmlns="http://www.w3.org/2000/svg">
<path d="M56.245 140.085L55.727 140.94L55.7323 140.944L56.245 140.085ZM40.005 121.96L39.1062 122.398L39.1106 122.407L40.005 121.96ZM40.005 64.54L39.1105 64.0928L39.1062 64.1016L40.005 64.54ZM56.245 46.415L55.7323 45.5564L55.727 45.5596L56.245 46.415ZM103.95 46.415L103.432 47.2704L103.437 47.2735L103.95 46.415ZM120.19 64.54L119.291 64.9784L119.296 64.9872L120.19 64.54ZM120.19 121.96L119.296 121.513L119.291 121.522L120.19 121.96ZM103.95 140.085L103.437 139.226L103.432 139.23L103.95 140.085ZM90.175 108.62L89.2126 108.349L89.2093 108.36L89.2063 108.372L90.175 108.62ZM90.175 77.88L89.2063 78.1284L89.2102 78.1433L89.2144 78.1581L90.175 77.88ZM86.115 69.905L86.7794 69.1576L86.7794 69.1576L86.115 69.905ZM74.225 69.905L73.5606 69.1576L73.5606 69.1576L74.225 69.905ZM70.02 77.88L69.0576 77.6085L69.0552 77.617L69.0529 77.6255L70.02 77.88ZM70.02 108.62L69.0513 108.868L69.0543 108.88L69.0576 108.891L70.02 108.62ZM80.17 145.32C71.3403 145.32 63.5462 143.281 56.7577 139.226L55.7323 140.944C62.8638 145.203 71.0197 147.32 80.17 147.32V145.32ZM56.763 139.23C50.0778 135.181 44.7875 129.289 40.8994 121.513L39.1106 122.407C43.1492 130.484 48.6856 136.676 55.727 140.94L56.763 139.23ZM40.9038 121.522C37.1193 113.763 35.205 104.351 35.205 93.25H33.205C33.205 104.575 35.1574 114.303 39.1062 122.398L40.9038 121.522ZM35.205 93.25C35.205 82.1486 37.1193 72.7366 40.9038 64.9784L39.1062 64.1016C35.1574 72.1967 33.205 81.9247 33.205 93.25H35.205ZM40.8994 64.9872C44.7875 57.2111 50.0778 51.3192 56.763 47.2704L55.727 45.5596C48.6856 49.8242 43.1492 56.0155 39.1106 64.0928L40.8994 64.9872ZM56.7577 47.2735C63.5462 43.2193 71.3403 41.18 80.17 41.18V39.18C71.0197 39.18 62.8638 41.2974 55.7323 45.5565L56.7577 47.2735ZM80.17 41.18C88.9999 41.18 96.7431 43.2194 103.432 47.2704L104.468 45.5596C97.4302 41.2973 89.3201 39.18 80.17 39.18V41.18ZM103.437 47.2735C110.216 51.3219 115.502 57.2103 119.291 64.9784L121.089 64.1016C117.145 56.0163 111.604 49.8214 104.463 45.5565L103.437 47.2735ZM119.296 64.9872C123.174 72.7431 125.135 82.1518 125.135 93.25H127.135C127.135 81.9215 125.133 72.1902 121.084 64.0928L119.296 64.9872ZM125.135 93.25C125.135 104.348 123.174 113.757 119.296 121.513L121.084 122.407C125.133 114.31 127.135 104.578 127.135 93.25H125.135ZM119.291 121.522C115.502 129.29 110.216 135.178 103.437 139.226L104.463 140.944C111.604 136.679 117.145 130.484 121.089 122.398L119.291 121.522ZM103.432 139.23C96.7431 143.281 88.9999 145.32 80.17 145.32V147.32C89.3201 147.32 97.4302 145.203 104.468 140.94L103.432 139.23ZM80.17 119.915C82.6506 119.915 84.8657 119.043 86.7794 117.342L85.4506 115.848C83.8843 117.24 82.1361 117.915 80.17 117.915V119.915ZM86.7794 117.342C88.738 115.601 90.1574 112.715 91.1437 108.868L89.2063 108.372C88.2593 112.065 86.972 114.495 85.4506 115.848L86.7794 117.342ZM91.1375 108.891C92.2366 104.994 92.77 99.767 92.77 93.25H90.77C90.77 99.6863 90.2401 104.706 89.2126 108.349L91.1375 108.891ZM92.77 93.25C92.77 86.6397 92.2372 81.4077 91.1356 77.6019L89.2144 78.1581C90.2394 81.699 90.77 86.7136 90.77 93.25H92.77ZM91.1437 77.6316C90.1574 73.7851 88.738 70.8986 86.7794 69.1576L85.4506 70.6524C86.972 72.0047 88.2593 74.4349 89.2063 78.1284L91.1437 77.6316ZM86.7794 69.1576C84.8657 67.4566 82.6506 66.585 80.17 66.585V68.585C82.1361 68.585 83.8843 69.2601 85.4506 70.6524L86.7794 69.1576ZM80.17 66.585C77.6894 66.585 75.4743 67.4566 73.5606 69.1576L74.8894 70.6524C76.4557 69.2601 78.2039 68.585 80.17 68.585V66.585ZM73.5606 69.1576C71.6106 70.891 70.1412 73.7665 69.0576 77.6085L70.9825 78.1515C72.0255 74.4535 73.3594 72.0123 74.8894 70.6524L73.5606 69.1576ZM69.0529 77.6255C68.0541 81.4209 67.57 86.6435 67.57 93.25H69.57C69.57 86.7098 70.0525 81.6858 70.9871 78.1345L69.0529 77.6255ZM67.57 93.25C67.57 99.7629 68.0547 104.981 69.0513 108.868L70.9887 108.372C70.052 104.719 69.57 99.6904 69.57 93.25H67.57ZM69.0576 108.891C70.1412 112.733 71.6106 115.609 73.5606 117.342L74.8894 115.848C73.3594 114.488 72.0255 112.047 70.9825 108.349L69.0576 108.891ZM73.5606 117.342C75.4743 119.043 77.6894 119.915 80.17 119.915V117.915C78.2039 117.915 76.4557 117.24 74.8894 115.848L73.5606 117.342ZM147.104 144H146.104V145H147.104V144ZM147.104 54.39L147.793 53.6652L146.104 52.0598V54.39H147.104ZM161.749 68.31V69.31H164.253L162.438 67.5852L161.749 68.31ZM129.704 68.31H128.704V69.31H129.704V68.31ZM129.704 42.5V41.5H128.704V42.5H129.704ZM181.324 42.5H182.324V41.5H181.324V42.5ZM181.324 144V145H182.324V144H181.324ZM148.104 144V54.39H146.104V144H148.104ZM146.416 55.1148L161.061 69.0348L162.438 67.5852L147.793 53.6652L146.416 55.1148ZM161.749 67.31H129.704V69.31H161.749V67.31ZM130.704 68.31V42.5H128.704V68.31H130.704ZM129.704 43.5H181.324V41.5H129.704V43.5ZM180.324 42.5V144H182.324V42.5H180.324ZM181.324 143H147.104V145H181.324V143Z" fill="url(#paint0_linear_559_141)" fill-opacity="0.15"/>
<defs>
<linearGradient id="paint0_linear_559_141" x1="96.0724" y1="102.488" x2="222.646" y2="102.488" gradientUnits="userSpaceOnUse">
<stop stop-color="#29B6FB"/>
<stop offset="1" stop-color="#D225E1"/>
</linearGradient>
</defs>
</svg>
