<svg width="190" height="185" viewBox="0 0 190 185" fill="none" xmlns="http://www.w3.org/2000/svg">
<path d="M28.245 140.085L27.727 140.94L27.7323 140.944L28.245 140.085ZM12.005 121.96L11.1062 122.398L11.1106 122.407L12.005 121.96ZM12.005 64.54L11.1105 64.0928L11.1062 64.1016L12.005 64.54ZM28.245 46.415L27.7323 45.5564L27.727 45.5596L28.245 46.415ZM75.95 46.415L75.432 47.2704L75.4373 47.2735L75.95 46.415ZM92.19 64.54L91.2912 64.9784L91.2956 64.9872L92.19 64.54ZM92.19 121.96L91.2955 121.513L91.2912 121.522L92.19 121.96ZM75.95 140.085L75.4373 139.226L75.432 139.23L75.95 140.085ZM62.175 108.62L61.2126 108.349L61.2093 108.36L61.2063 108.372L62.175 108.62ZM62.175 77.88L61.2063 78.1284L61.2102 78.1433L61.2144 78.1581L62.175 77.88ZM58.115 69.905L58.7794 69.1576L58.7794 69.1576L58.115 69.905ZM46.225 69.905L45.5606 69.1576L45.5606 69.1576L46.225 69.905ZM42.02 77.88L41.0576 77.6085L41.0552 77.617L41.0529 77.6255L42.02 77.88ZM42.02 108.62L41.0513 108.868L41.0543 108.88L41.0576 108.891L42.02 108.62ZM52.17 145.32C43.3403 145.32 35.5462 143.281 28.7577 139.226L27.7323 140.944C34.8638 145.203 43.0197 147.32 52.17 147.32V145.32ZM28.763 139.23C22.0778 135.181 16.7875 129.289 12.8994 121.513L11.1106 122.407C15.1492 130.484 20.6856 136.676 27.727 140.94L28.763 139.23ZM12.9038 121.522C9.11927 113.763 7.205 104.351 7.205 93.25H5.205C5.205 104.575 7.1574 114.303 11.1062 122.398L12.9038 121.522ZM7.205 93.25C7.205 82.1486 9.11927 72.7366 12.9038 64.9784L11.1062 64.1016C7.1574 72.1967 5.205 81.9247 5.205 93.25H7.205ZM12.8994 64.9872C16.7875 57.2111 22.0778 51.3192 28.763 47.2704L27.727 45.5596C20.6856 49.8242 15.1492 56.0155 11.1106 64.0928L12.8994 64.9872ZM28.7577 47.2735C35.5462 43.2193 43.3403 41.18 52.17 41.18V39.18C43.0197 39.18 34.8638 41.2974 27.7323 45.5565L28.7577 47.2735ZM52.17 41.18C60.9999 41.18 68.7431 43.2194 75.432 47.2704L76.468 45.5596C69.4302 41.2973 61.3201 39.18 52.17 39.18V41.18ZM75.4373 47.2735C82.2159 51.3219 87.5019 57.2103 91.2912 64.9784L93.0888 64.1016C89.1448 56.0163 83.6041 49.8214 76.4627 45.5565L75.4373 47.2735ZM91.2956 64.9872C95.1735 72.7431 97.135 82.1518 97.135 93.25H99.135C99.135 81.9215 97.1331 72.1902 93.0844 64.0928L91.2956 64.9872ZM97.135 93.25C97.135 104.348 95.1735 113.757 91.2956 121.513L93.0844 122.407C97.1331 114.31 99.135 104.578 99.135 93.25H97.135ZM91.2912 121.522C87.5019 129.29 82.2159 135.178 75.4373 139.226L76.4627 140.944C83.6041 136.679 89.1448 130.484 93.0888 122.398L91.2912 121.522ZM75.432 139.23C68.7431 143.281 60.9999 145.32 52.17 145.32V147.32C61.3201 147.32 69.4302 145.203 76.468 140.94L75.432 139.23ZM52.17 119.915C54.6506 119.915 56.8657 119.043 58.7794 117.342L57.4506 115.848C55.8843 117.24 54.1361 117.915 52.17 117.915V119.915ZM58.7794 117.342C60.738 115.601 62.1574 112.715 63.1437 108.868L61.2063 108.372C60.2593 112.065 58.972 114.495 57.4506 115.848L58.7794 117.342ZM63.1375 108.891C64.2366 104.994 64.77 99.767 64.77 93.25H62.77C62.77 99.6863 62.2401 104.706 61.2126 108.349L63.1375 108.891ZM64.77 93.25C64.77 86.6397 64.2372 81.4077 63.1356 77.6019L61.2144 78.1581C62.2394 81.699 62.77 86.7136 62.77 93.25H64.77ZM63.1437 77.6316C62.1574 73.7851 60.738 70.8986 58.7794 69.1576L57.4506 70.6524C58.972 72.0047 60.2593 74.4349 61.2063 78.1284L63.1437 77.6316ZM58.7794 69.1576C56.8657 67.4566 54.6506 66.585 52.17 66.585V68.585C54.1361 68.585 55.8843 69.2601 57.4506 70.6524L58.7794 69.1576ZM52.17 66.585C49.6894 66.585 47.4743 67.4566 45.5606 69.1576L46.8894 70.6524C48.4557 69.2601 50.2039 68.585 52.17 68.585V66.585ZM45.5606 69.1576C43.6106 70.891 42.1412 73.7665 41.0576 77.6085L42.9825 78.1515C44.0255 74.4535 45.3594 72.0123 46.8894 70.6524L45.5606 69.1576ZM41.0529 77.6255C40.0541 81.4209 39.57 86.6435 39.57 93.25H41.57C41.57 86.7098 42.0525 81.6858 42.9871 78.1345L41.0529 77.6255ZM39.57 93.25C39.57 99.7629 40.0547 104.981 41.0513 108.868L42.9887 108.372C42.052 104.719 41.57 99.6904 41.57 93.25H39.57ZM41.0576 108.891C42.1412 112.733 43.6106 115.609 45.5606 117.342L46.8894 115.848C45.3594 114.488 44.0255 112.047 42.9825 108.349L41.0576 108.891ZM45.5606 117.342C47.4743 119.043 49.6894 119.915 52.17 119.915V117.915C50.2039 117.915 48.4557 117.24 46.8894 115.848L45.5606 117.342ZM105.039 144H104.039V145H105.039V144ZM105.039 122.975L104.36 122.241L104.039 122.538V122.975H105.039ZM141.724 89.045L142.403 89.7791L142.41 89.7731L142.416 89.767L141.724 89.045ZM146.799 83.245L145.983 82.6683L145.971 82.6848L145.96 82.7017L146.799 83.245ZM149.119 78.895L150.075 79.1891L150.078 79.1794L150.081 79.1697L149.119 78.895ZM147.234 69.325L146.573 70.0748L146.586 70.0861L146.599 70.0969L147.234 69.325ZM131.284 69.615L131.781 70.4832L131.792 70.4767L131.803 70.4698L131.284 69.615ZM124.904 76.575L124.457 77.4694L125.352 77.9166L125.799 77.0222L124.904 76.575ZM99.0945 63.67L98.2101 63.2032L97.733 64.1073L98.6473 64.5644L99.0945 63.67ZM115.624 46.705L116.134 47.5655L116.134 47.5655L115.624 46.705ZM164.344 44.095L163.956 45.0164L163.956 45.0164L164.344 44.095ZM178.844 55.115L178.039 55.7071L178.039 55.7071L178.844 55.115ZM182.759 81.795L181.793 81.5391L181.789 81.5525L181.786 81.566L182.759 81.795ZM177.829 92.235L178.648 92.81L178.655 92.7997L177.829 92.235ZM166.664 104.27L165.995 103.527L165.991 103.531L166.664 104.27ZM139.114 129.355L138.203 129.766L138.769 131.022L139.788 130.094L139.114 129.355ZM133.749 117.465V116.465H132.201L132.838 117.876L133.749 117.465ZM186.384 117.465H187.384V116.465H186.384V117.465ZM186.384 144V145H187.384V144H186.384ZM106.039 144V122.975H104.039V144H106.039ZM105.718 123.709L142.403 89.7791L141.045 88.3109L104.36 122.241L105.718 123.709ZM142.416 89.767C144.762 87.5195 146.515 85.5247 147.639 83.7882L145.96 82.7017C144.957 84.2519 143.327 86.1238 141.033 88.323L142.416 89.767ZM147.616 83.8217C148.809 82.1327 149.646 80.5852 150.075 79.1891L148.164 78.6009C147.82 79.7181 147.11 81.0706 145.983 82.6683L147.616 83.8217ZM150.081 79.1697C150.488 77.7454 150.699 76.3952 150.699 75.125H148.699C148.699 76.1748 148.524 77.338 148.158 78.6203L150.081 79.1697ZM150.699 75.125C150.699 72.3728 149.787 70.1314 147.87 68.5531L146.599 70.0969C147.969 71.2252 148.699 72.8505 148.699 75.125H150.699ZM147.896 68.5752C145.998 66.9 143.252 66.15 139.839 66.15V68.15C143.001 68.15 145.185 68.85 146.573 70.0748L147.896 68.5752ZM139.839 66.15C136.649 66.15 133.619 67.0275 130.766 68.7602L131.803 70.4698C134.363 68.9158 137.036 68.15 139.839 68.15V66.15ZM130.788 68.7468C127.892 70.4019 125.635 72.8779 124.01 76.1278L125.799 77.0222C127.267 74.0854 129.264 71.9214 131.781 70.4832L130.788 68.7468ZM125.352 75.6806L99.5417 62.7756L98.6473 64.5644L124.457 77.4694L125.352 75.6806ZM99.9789 64.1368C103.559 57.3539 108.932 51.8297 116.134 47.5655L115.115 45.8445C107.623 50.2803 101.977 56.0661 98.2101 63.2032L99.9789 64.1368ZM116.134 47.5655C123.289 43.329 132.236 41.18 143.029 41.18V39.18C131.976 39.18 122.653 41.381 115.115 45.8445L116.134 47.5655ZM143.029 41.18C150.945 41.18 157.914 42.4673 163.956 45.0164L164.733 43.1736C158.402 40.5027 151.161 39.18 143.029 39.18V41.18ZM163.956 45.0164C170 47.5664 174.68 51.1355 178.039 55.7071L179.65 54.5229C176.049 49.6211 171.062 45.8436 164.733 43.1736L163.956 45.0164ZM178.039 55.7071C181.38 60.2546 183.064 65.6485 183.064 71.935H185.064C185.064 65.2682 183.269 59.4488 179.65 54.5229L178.039 55.7071ZM183.064 71.935C183.064 75.1323 182.641 78.3331 181.793 81.5391L183.726 82.0509C184.618 78.6836 185.064 75.311 185.064 71.935H183.064ZM181.786 81.566C181.048 84.7011 179.469 88.0681 177.004 91.6703L178.655 92.7997C181.217 89.0552 182.924 85.4622 183.733 82.024L181.786 81.566ZM177.011 91.6601C174.557 95.1526 170.895 99.1079 165.995 103.527L167.334 105.013C172.294 100.539 176.075 96.4707 178.648 92.8099L177.011 91.6601ZM165.991 103.531L138.441 128.616L139.788 130.094L167.338 105.009L165.991 103.531ZM140.026 128.944L134.661 117.054L132.838 117.876L138.203 129.766L140.026 128.944ZM133.749 118.465H186.384V116.465H133.749V118.465ZM185.384 117.465V144H187.384V117.465H185.384ZM186.384 143H105.039V145H186.384V143Z" fill="url(#paint0_linear_559_142)" fill-opacity="0.15"/>
<defs>
<linearGradient id="paint0_linear_559_142" x1="79.6351" y1="102.488" x2="228.359" y2="102.488" gradientUnits="userSpaceOnUse">
<stop stop-color="#29B6FB"/>
<stop offset="1" stop-color="#D225E1"/>
</linearGradient>
</defs>
</svg>
